<svg xmlns="http://www.w3.org/2000/svg"  viewBox="0 0 24 24" width="48px" height="48px"><path d="M 6 3 C 4.3550302 3 3 4.3550302 3 6 L 3 18 C 3 19.64497 4.3550302 21 6 21 L 18 21 C 19.64497 21 21 19.64497 21 18 L 21 6 C 21 4.3550302 19.64497 3 18 3 L 6 3 z M 6 5 L 18 5 C 18.56503 5 19 5.4349698 19 6 L 19 18 C 19 18.56503 18.56503 19 18 19 L 6 19 C 5.4349698 19 5 18.56503 5 18 L 5 6 C 5 5.4349698 5.4349698 5 6 5 z M 11.564453 6.015625 C 10.548045 6.0928848 9.5542344 6.695 9.0371094 7.609375 C 9.0197259 7.6381524 9.0085398 7.6699296 8.9921875 7.6992188 C 8.1561039 7.769944 7.3128915 8.2441047 6.8183594 9.0078125 C 6.1633594 9.9658125 6.1077969 11.337094 6.7167969 12.371094 C 6.7327286 12.400028 6.7546266 12.424806 6.7714844 12.453125 C 6.4138918 13.213028 6.4021858 14.181756 6.8164062 14.992188 C 7.3184063 16.039187 8.4796875 16.772719 9.6796875 16.761719 C 9.7124657 16.762344 9.7446327 16.756325 9.7773438 16.755859 C 10.256981 17.445087 11.089344 17.938196 11.998047 17.984375 C 13.156047 18.072375 14.371891 17.435625 14.962891 16.390625 C 14.980274 16.361848 14.99146 16.33007 15.007812 16.300781 C 15.843896 16.230056 16.687109 15.755895 17.181641 14.992188 C 17.836641 14.034187 17.892203 12.662906 17.283203 11.628906 C 17.267271 11.599972 17.245373 11.575194 17.228516 11.546875 C 17.586108 10.786972 17.597814 9.8182439 17.183594 9.0078125 C 16.681594 7.9608125 15.520312 7.2272812 14.320312 7.2382812 C 14.287534 7.2376561 14.255367 7.2436747 14.222656 7.2441406 C 13.743019 6.5549135 12.910656 6.0618037 12.001953 6.015625 C 11.857203 6.004625 11.709654 6.0045879 11.564453 6.015625 z M 12 7.2675781 C 12.380086 7.2268735 12.777814 7.2927592 13.158203 7.4511719 C 12.414082 7.7357418 11.777125 8.2862509 11.435547 8.9941406 C 11.036163 9.7569336 11.028774 10.668762 11.333984 11.40625 A 0.893 0.893 0 0 0 11.296875 11.449219 C 10.814415 11.172582 10.446304 10.785102 10.246094 10.332031 C 9.9520938 9.6870313 9.9941719 8.9394687 10.326172 8.3554688 C 10.652172 7.7564687 11.285 7.3515781 12 7.2675781 z M 8.640625 8.7226562 C 8.5151117 9.5092768 8.6734799 10.336728 9.1152344 10.986328 C 9.5759533 11.712621 10.361579 12.174463 11.152344 12.279297 A 0.893 0.893 0 0 0 11.171875 12.333984 C 10.690958 12.613525 10.172243 12.736937 9.6796875 12.683594 C 8.9736875 12.615594 8.3458594 12.206953 8.0058594 11.626953 C 7.6498594 11.044953 7.6173437 10.296766 7.9023438 9.6347656 C 8.0568617 9.2849837 8.3127154 8.9727163 8.640625 8.7226562 z M 14.320312 8.7285156 C 15.002313 8.7115156 15.666656 9.0577656 16.097656 9.6347656 C 16.323262 9.9435175 16.464862 10.320958 16.517578 10.730469 C 15.899239 10.227888 15.102764 9.9496342 14.318359 10.007812 C 13.458871 10.043777 12.667758 10.494102 12.181641 11.126953 A 0.893 0.893 0 0 0 12.125 11.115234 C 12.123407 10.55899 12.275966 10.048227 12.568359 9.6484375 C 12.979359 9.0714375 13.648312 8.7335156 14.320312 8.7285156 z M 14.320312 11.314453 C 15.026312 11.382453 15.654141 11.791094 15.994141 12.371094 C 16.350141 12.953094 16.382656 13.703234 16.097656 14.365234 C 15.943138 14.715016 15.687285 15.027135 15.359375 15.277344 C 15.484888 14.490723 15.32652 13.663272 14.884766 13.013672 C 14.424047 12.287379 13.638421 11.825537 12.847656 11.720703 A 0.893 0.893 0 0 0 12.826172 11.664062 C 13.307463 11.383941 13.827293 11.26106 14.320312 11.314453 z M 12.703125 12.550781 C 13.185417 12.827409 13.551789 13.215002 13.751953 13.667969 C 14.045953 14.312969 14.005828 15.060531 13.673828 15.644531 C 13.347828 16.243531 12.713047 16.648422 11.998047 16.732422 C 11.618489 16.773127 11.222185 16.707241 10.841797 16.548828 C 11.585918 16.264258 12.222875 15.713749 12.564453 15.005859 C 12.963837 14.243066 12.971226 13.331238 12.666016 12.59375 A 0.893 0.893 0 0 0 12.703125 12.550781 z M 11.818359 12.873047 A 0.893 0.893 0 0 0 11.875 12.884766 C 11.876593 13.44101 11.724034 13.951773 11.431641 14.351562 C 11.020641 14.928563 10.351688 15.266484 9.6796875 15.271484 C 8.9976875 15.288484 8.3333437 14.942234 7.9023438 14.365234 C 7.6767377 14.056482 7.5351379 13.679042 7.4824219 13.269531 C 8.1007613 13.772112 8.8972364 14.050366 9.6816406 13.992188 C 10.541129 13.956223 11.332242 13.505898 11.818359 12.873047 z"/></svg>