<svg xmlns="http://www.w3.org/2000/svg" fill="none" viewBox="0 0 48 48" id="P5js--Streamline-Svg-Logos" height="48" width="48"><desc>P5js Streamline Icon: https://streamlinehq.com</desc><path fill="#ed225d" d="M3.134285 18.3647v1.53465h0.068885c0.13719 -0.2136 0.316595 -0.43135 0.538215 -0.6528 0.221235 -0.2214 0.49255 -0.4198 0.81337 -0.59575 0.320625 -0.175 0.683295 -0.32045 1.088145 -0.4352 0.4043 -0.11435 0.85905 -0.1719 1.3629 -0.1719 0.779 0 1.49665 0.1491 2.15345 0.4467 0.6566 0.29835 1.22185 0.70685 1.6954 1.2259 0.4732 0.5194 0.83965 1.13035 1.09945 1.8326 0.25965 0.70265 0.38955 1.45865 0.38955 2.268 0 0.80935 -0.1261 1.56915 -0.3782 2.2793 -0.25175 0.71015 -0.61115 1.32855 -1.07665 1.85545 -0.46605 0.5269 -1.03075 0.9475 -1.6952 1.2599 -0.6645 0.31295 -1.41685 0.4695 -2.2565 0.4695 -0.779 0 -1.493 -0.1604 -2.141925 -0.48085 -0.649505 -0.3208 -1.149345 -0.7558 -1.50048 -1.3061h-0.045665v6.9642H0.5V18.3647h2.634285Zm6.414465 5.452c0 -0.4277 -0.06505 -0.85155 -0.19475 -1.27155 -0.1301 -0.41985 -0.32465 -0.79785 -0.58425 -1.134 -0.25985 -0.3354 -0.58795 -0.60675 -0.9851 -0.8132 -0.3972 -0.20605 -0.8629 -0.3091 -1.39725 -0.3091 -0.5041 0 -0.9548 0.10685 -1.3516 0.3208 -0.397195 0.21395 -0.7372 0.4891 -1.019455 0.8245 -0.282825 0.3362 -0.496385 0.718 -0.641445 1.1457 -0.145445 0.4277 -0.21759 0.8556 -0.21759 1.2829 0 0.4277 0.072145 0.85155 0.21759 1.2712 0.14506 0.4204 0.35862 0.7982 0.641445 1.13435 0.282445 0.3358 0.62226 0.6071 1.019455 0.8128 0.3968 0.20645 0.8475 0.30915 1.3516 0.30915 0.53435 0 1.00005 -0.1065 1.39725 -0.32045 0.39695 -0.21395 0.72525 -0.4887 0.9851 -0.8249 0.2596 -0.33575 0.45415 -0.7176 0.58425 -1.1453 0.1297 -0.4277 0.19475 -0.8554 0.19475 -1.2829Zm26.7955 -5.97735v12.18535c0 0.6566 -0.05355 1.27905 -0.1604 1.86695 -0.10725 0.58795 -0.30915 1.0995 -0.6071 1.53505 -0.2976 0.43555 -0.70265 0.78245 -1.2142 1.04225 -0.51195 0.2598 -1.1797 0.38935 -2.00455 0.38935 -0.2289 0 -0.458 -0.01535 -0.6873 -0.0457 -0.22895 -0.0307 -0.41215 -0.0614 -0.54975 -0.0919l0.2293 -2.33665c0.12225 0.0307 0.25175 0.0535 0.3893 0.06885 0.1376 0.015 0.25945 0.02285 0.3665 0.02285 0.32045 0 0.58005 -0.061 0.77885 -0.18325 0.1982 -0.1226 0.3511 -0.2905 0.4584 -0.50405 0.10645 -0.21395 0.17535 -0.46205 0.20605 -0.7447 0.0303 -0.2826 0.04565 -0.58385 0.04565 -0.9047V17.83935h2.74925ZM29.4802 25.32775l0 1.70675 1.6371 -0.4941 0.3216 0.9893 -1.6306 0.5561 1.0122 1.43525 -0.8533 0.61895 -1.0655 -1.4099 -1.03765 1.3727 -0.82875 -0.6311 1.01215 -1.3859 -1.64305 -0.5929 0.3218 -0.9901 1.64995 0.5317v-1.70675h1.10405Zm16.2334 -4.03095c-0.2446 -0.32085 -0.5804 -0.59925 -1.0081 -0.83605 -0.4277 -0.23675 -0.8934 -0.35535 -1.39745 -0.35535 -0.44305 0 -0.84735 0.0919 -1.2138 0.27515 -0.3669 0.18285 -0.54975 0.4887 -0.54975 0.91625 0 0.4275 0.20205 0.7297 0.6067 0.9047 0.4047 0.17575 0.99685 0.35535 1.77565 0.5386 0.41215 0.0919 0.82815 0.2139 1.24835 0.36645s0.80205 0.355 1.1457 0.6071c0.3433 0.25175 0.6221 0.5651 0.836 0.93925 0.2136 0.37435 0.32085 0.82855 0.32085 1.3631 0 0.67235 -0.12625 1.24125 -0.3782 1.70675 -0.25175 0.4659 -0.5879 0.8439 -1.0081 1.134 -0.42025 0.2901 -0.90875 0.5002 -1.46615 0.62995 -0.5576 0.1297 -1.1336 0.19455 -1.7296 0.19455 -0.85555 0 -1.68755 -0.1566 -2.4971 -0.46955 -0.8095 -0.31255 -1.48145 -0.7596 -2.01585 -1.33965l1.8098 -1.69545c0.30545 0.3972 0.70225 0.7255 1.19135 0.9849 0.4887 0.2598 1.0306 0.38935 1.62655 0.38935 0.1982 0 0.40065 -0.02245 0.6071 -0.0685 0.2061 -0.0457 0.3968 -0.118 0.57255 -0.2174 0.1754 -0.0994 0.3166 -0.23275 0.42385 -0.40105 0.1065 -0.16825 0.16005 -0.37395 0.16005 -0.6188 0 -0.4584 -0.2099 -0.7863 -0.62955 -0.9849 -0.4204 -0.1986 -1.05055 -0.3972 -1.89 -0.5956 -0.41255 -0.0919 -0.81355 -0.2099 -1.20305 -0.35535 -0.38935 -0.14505 -0.73685 -0.3358 -1.0423 -0.57255 -0.30585 -0.2368 -0.54975 -0.53035 -0.73295 -0.88225 -0.18325 -0.35115 -0.27515 -0.78635 -0.27515 -1.30575 0 -0.61095 0.12585 -1.13745 0.37815 -1.5803 0.25175 -0.4434 0.5843 -0.8053 0.99645 -1.0887 0.41215 -0.28225 0.878 -0.49235 1.39745 -0.62955 0.519 -0.1376 1.05375 -0.20645 1.6035 -0.20645 0.7938 0 1.5692 0.13755 2.325 0.41215 0.7558 0.27515 1.355 0.69555 1.79845 1.26025l-1.7864 1.5807Zm-21.8888 0.56105c-0.2826 -0.6334 -0.6756 -1.16815 -1.17965 -1.60355 -0.50385 -0.43515 -1.0958 -0.7675 -1.77525 -0.9964 -0.6798 -0.2289 -1.4168 -0.34365 -2.2106 -0.34365 -0.29035 0 -0.6148 0.0157 -0.9736 0.04565 -0.359 0.0311 -0.6681 0.08425 -0.92775 0.1608l0.16025 -3.5052h6.62055v-2.4739h-9.232l-0.275 8.86495c0.2439 -0.12185 0.5229 -0.2364 0.83605 -0.34365 0.31295 -0.1065 0.63355 -0.20205 0.96205 -0.2859 0.3283 -0.08405 0.6645 -0.1487 1.00815 -0.19495 0.34365 -0.0457 0.6679 -0.0685 0.97355 -0.0685 0.4427 0 0.87805 0.0495 1.30575 0.1487 0.4275 0.0994 0.81315 0.27515 1.1568 0.5269 0.3437 0.25175 0.6221 0.58425 0.83625 0.9964 0.21355 0.41215 0.3206 0.93155 0.3206 1.55785 0 0.4887 -0.0802 0.92795 -0.2406 1.31725 -0.16025 0.38895 -0.378 0.71395 -0.6526 0.9732 -0.27515 0.26 -0.59555 0.4584 -0.96245 0.5956 -0.3665 0.13795 -0.7558 0.20645 -1.16835 0.20645 -0.73275 0 -1.3669 -0.19495 -1.9013 -0.58425 -0.53475 -0.38935 -0.9162 -0.9047 -1.1455 -1.54635l-0.0305 0.0113 -1.9894 1.8641c0.40235 0.6562 0.921 1.2052 1.5619 1.64115 0.93135 0.63335 2.07665 0.95075 3.4363 0.95075 0.80935 0 1.57285 -0.1301 2.29065 -0.38935 0.7176 -0.2594 1.3439 -0.63375 1.8785 -1.12285 0.53435 -0.48835 0.9582 -1.08795 1.27155 -1.7981 0.31275 -0.71015 0.46935 -1.51545 0.46935 -2.4169 0.00015 -0.82465 -0.14105 -1.5534 -0.4237 -2.18755Z" stroke-width="0.5"></path></svg>